<?xml version="1.0" encoding="UTF-8"?>
<svg width="78px" height="61px" viewBox="0 0 78 61" version="1.1" xmlns="http://www.w3.org/2000/svg" xmlns:xlink="http://www.w3.org/1999/xlink">
    <!-- Generator: Sketch 63.1 (92452) - https://sketch.com -->
    <title>Group 12</title>
    <desc>Created with Sketch.</desc>
    <g id="Symbols" stroke="none" stroke-width="1" fill="none" fill-rule="evenodd">
        <g id="setting-layout-new" transform="translate(-779.000000, -50.000000)">
            <g id="Group-19">
                <g transform="translate(720.000000, 0.000000)">
                    <g id="Group-12" transform="translate(61.000000, 50.000000)">
                        <circle id="Oval" fill="#FFDA60" cx="36" cy="30" r="30"></circle>
                        <ellipse id="Oval" stroke="#2C3FF3" stroke-width="3" cx="54.8999726" cy="28.8114754" rx="8.1380403" ry="8.1147541"></ellipse>
                        <path d="M54.8999726,42.4344262 C49.6271695,42.4344262 44.8519333,44.515622 41.3959535,47.8854573 C38.2931783,50.910892 36.2546119,54.9759385 35.8828358,59.5 L73.9171094,59.5 C73.5453333,54.9759385 71.5067669,50.910892 68.4039917,47.8854573 C64.9480118,44.515622 60.1727757,42.4344262 54.8999726,42.4344262 Z" id="Oval" stroke="#2C3FF3" stroke-width="3"></path>
                        <path d="M0,43.481049 L0,28 C-2.705415e-16,25.790861 1.790861,24 4,24 L37,24 C39.209139,24 41,25.790861 41,28 L41,55 C41,57.209139 39.209139,59 37,59 L12.4242424,59 L12.4242424,59" id="Rectangle" stroke="#2C3FF3" stroke-width="3" transform="translate(20.500000, 41.500000) scale(-1, 1) translate(-20.500000, -41.500000) "></path>
                        <path d="M12,4 L23,4 C26.3137085,4 29,6.6862915 29,10 L29,22 C29,25.3137085 26.3137085,28 23,28 L12,28 L12,28" id="Rectangle" stroke="#2C3FF3" stroke-width="3" transform="translate(20.500000, 16.000000) scale(1, -1) rotate(90.000000) translate(-20.500000, -16.000000) "></path>
                        <path d="M20.5,32 C22.9852814,32 25,34.0147186 25,36.5 C25,38.4589202 23.7483101,40.1254925 22.0010919,40.7435553 L22,49 L19,49 L18.9999135,40.7439108 C17.2521701,40.1261318 16,38.4592959 16,36.5 C16,34.0147186 18.0147186,32 20.5,32 Z" id="Combined-Shape" fill="#FFFFFF"></path>
                    </g>
                </g>
            </g>
        </g>
    </g>
</svg>