<?xml version="1.0" encoding="UTF-8"?>
<svg width="70px" height="62px" viewBox="0 0 70 62" version="1.1" xmlns="http://www.w3.org/2000/svg" xmlns:xlink="http://www.w3.org/1999/xlink">
    <!-- Generator: Sketch 63.1 (92452) - https://sketch.com -->
    <title>Account Center</title>
    <desc>Created with Sketch.</desc>
    <g id="Symbols" stroke="none" stroke-width="1" fill="none" fill-rule="evenodd">
        <g id="setting-layout-new" transform="translate(-63.000000, -48.000000)">
            <g id="Group-16">
                <g>
                    <g id="Account-Center" transform="translate(60.000000, 48.000000)">
                        <g id="Group-13" transform="translate(0.417535, 0.000000)">
                            <g id="Group-8">
                                <circle id="Oval" fill="#FFDA60" cx="33" cy="30" r="30"></circle>
                                <g id="Group-2" transform="translate(0.000000, 10.000000)" stroke="#2C3FF3" stroke-width="3">
                                    <ellipse id="Oval" cx="44.8999726" cy="18.8114754" rx="8.1380403" ry="8.1147541"></ellipse>
                                    <path d="M44.8999726,32.4344262 C39.6271695,32.4344262 34.8519333,34.515622 31.3959535,37.8854573 C28.2931783,40.910892 26.2546119,44.9759385 25.8828358,49.5 L63.9171094,49.5 C63.5453333,44.9759385 61.5067669,40.910892 58.4039917,37.8854573 C54.9480118,34.515622 50.1727757,32.4344262 44.8999726,32.4344262 Z" id="Oval"></path>
                                </g>
                            </g>
                            <g id="Group-3" transform="translate(55.000000, 14.000000)" stroke="#C3C3C3" stroke-linecap="square" stroke-width="3">
                                <line x1="8.065625" y1="24.3088235" x2="16.034375" y2="24.3088235" id="Line"></line>
                                <line x1="7.78529412" y1="24.3088235" x2="16.3147059" y2="24.3088235" id="Line" transform="translate(12.050000, 24.308824) scale(-1, 1) rotate(90.000000) translate(-12.050000, -24.308824) "></line>
                                <line x1="0" y1="0.426470588" x2="6.8" y2="0.426470588" id="Line-2" transform="translate(3.400000, 0.426471) scale(1, -1) translate(-3.400000, -0.426471) "></line>
                            </g>
                            <path d="M19.4805195,60 L12,60 L12,10 C12,7.790861 13.790861,6 16,6 L40,6 C42.209139,6 44,7.790861 44,10 L44,16.125 L44,16.125" id="Path" stroke="#2C3FF3" stroke-width="3"></path>
                            <rect id="Rectangle" fill="#FFFFFF" x="26" y="11" width="4" height="4" rx="1"></rect>
                            <rect id="Rectangle" fill="#2C3FF3" x="35" y="11" width="4" height="4" rx="1"></rect>
                            <rect id="Rectangle" fill="#2C3FF3" x="19" y="20" width="4" height="4" rx="1"></rect>
                            <rect id="Rectangle" fill="#FFFFFF" x="26" y="29" width="4" height="4" rx="1"></rect>
                            <rect id="Rectangle" fill="#FFFFFF" x="19" y="36" width="4" height="4" rx="1"></rect>
                            <rect id="Rectangle" fill="#2C3FF3" x="19" y="45" width="4" height="4" rx="1"></rect>
                        </g>
                    </g>
                </g>
            </g>
        </g>
    </g>
</svg>